<svg width="204" height="65" viewBox="0 0 204 65" fill="none" xmlns="http://www.w3.org/2000/svg">
<g clip-path="url(#clip0_23_174)">
<mask id="mask0_23_174" style="mask-type:luminance" maskUnits="userSpaceOnUse" x="-6" y="-11" width="210" height="76">
<path d="M204 -10.1206H-6V65H204V-10.1206Z" fill="white"/>
</mask>
<g mask="url(#mask0_23_174)">
<mask id="mask1_23_174" style="mask-type:luminance" maskUnits="userSpaceOnUse" x="-6" y="-153" width="242" height="243">
<path d="M-6 -152.035H235.171V89.3158H-6V-152.035Z" fill="white"/>
</mask>
<g mask="url(#mask1_23_174)">
<path d="M8.35896 25.0503C8.35896 25.0503 6.32359 27.9858 5.15628 29.4535C3.9889 30.9213 0.965776 35.6777 0.397088 41.3273C-0.171637 46.9767 2.97121 52.8479 7.34128 53.8959C11.7113 54.9444 16.8895 53.1171 17.6977 48.055C18.5059 42.9928 13.1256 36.8747 11.0005 31.8723C8.87528 26.87 8.8379 26.6678 8.35896 25.0503Z" fill="#29AAE3"/>
<path d="M1.39016 51.6658C1.38184 51.6475 4.13241 55.2105 8.34934 55.9091C8.34934 55.9091 17.7155 57.1192 19.5646 48.0942C19.582 48.009 19.6997 47.9987 19.7309 48.0798C20.0712 48.9644 21.1643 52.0579 20.7694 54.4937C20.2922 57.4366 16.3411 59.9306 12.3003 59.6607C8.25959 59.3916 3.99416 57.3527 1.39016 51.6658Z" fill="#29AAE3"/>
<path d="M17.7852 60.0452C17.737 60.0471 17.7208 59.982 17.7637 59.9607C18.7305 59.4693 23.0444 56.9108 21.7659 50.9144C20.3292 44.1748 14.1407 34.4764 13.3289 32.926C13.3289 32.926 10.0099 27.128 9.94385 23.5244C9.94348 23.5023 9.97435 23.4958 9.98266 23.5163C10.2297 24.1308 11.6119 27.4741 13.5765 30.4258C15.7497 33.6908 22.2748 41.1195 24.9387 45.4029C27.6027 49.6864 29.2789 53.2806 26.1959 56.6654C23.4694 59.659 18.823 60.0051 17.7852 60.0452Z" fill="#29AAE3"/>
<path d="M10.7826 14.6271C10.7461 14.5057 10.5735 14.5063 10.5386 14.6281C10.2969 15.4711 9.53194 18.7342 10.8433 22.5941C12.3698 27.0872 14.2854 29.7531 17.4881 33.8568C20.6909 37.9606 24.7016 43.0227 26.5874 46.0782C28.4731 49.1335 29.2813 52.3035 29.3411 53.7438C29.3411 53.7438 31.1968 52.1289 31.4064 48.804C31.6159 45.479 30.9873 41.8546 26.8867 37.032C22.7861 32.2094 18.2364 27.1171 15.7521 24.4512C14.7616 23.3883 13.9461 22.1654 13.2237 20.9084C12.5693 19.7695 11.9868 18.5863 11.4843 17.3728C11.2828 16.8861 11.1127 16.3864 10.9892 15.8743C10.9166 15.5727 10.8582 15.2654 10.8269 14.9564C10.817 14.8582 10.8144 14.7337 10.7826 14.6271Z" fill="#4ADB2A"/>
<path d="M15.1211 8.48022C12.6099 10.5495 11.1918 13.8434 12.2898 17.0234C12.8474 18.6383 13.8576 20.0532 14.8953 21.4103C16.8665 23.9881 18.9846 26.4495 21.1012 28.9091C24.0697 32.3587 27.0384 35.8083 30.0068 39.2579C28.5128 35.668 26.1953 32.4901 23.8442 29.3937C21.4931 26.2973 19.0703 23.2184 17.3215 19.7456C15.5727 16.273 14.5243 12.3233 15.1211 8.48022Z" fill="#4ADB2A"/>
<path d="M3.4802 34.7555C3.20313 36.3273 2.9987 37.8694 2.89895 39.407C2.85088 40.1749 2.82326 40.9397 2.83913 41.7003C2.85232 42.0801 2.85632 42.4596 2.88945 42.8364L2.90645 43.1195L2.9342 43.4012C2.95457 43.5887 2.96563 43.7775 2.99682 43.9631C3.02257 44.1494 3.04382 44.3365 3.07113 44.5224L3.17032 45.0769C3.18345 45.1701 3.20438 45.2613 3.22476 45.3527L3.28488 45.6274C3.30532 45.7188 3.32382 45.8109 3.34576 45.902C3.37138 45.992 3.3952 46.0824 3.41888 46.173L3.49007 46.4451L3.52563 46.5813L3.56907 46.7146C3.62832 46.892 3.68313 47.0715 3.73863 47.2511C3.80088 47.4278 3.87157 47.6013 3.93613 47.7781C3.96988 47.8657 3.99651 47.9569 4.03639 48.0419L4.15001 48.3001C4.73282 49.696 5.5942 50.9687 6.59307 52.2188C6.42195 52.1165 6.25657 52.005 6.08645 51.8966L5.83513 51.7283C5.75326 51.6698 5.67751 51.6044 5.59801 51.5424C5.44001 51.4173 5.28488 51.2876 5.1277 51.1585C4.97932 51.0212 4.83682 50.8773 4.69013 50.7357C4.61751 50.6641 4.54513 50.5921 4.4742 50.5188L4.27395 50.2879C4.14207 50.1322 4.00588 49.9782 3.88101 49.8159C3.64045 49.4851 3.39413 49.1531 3.19213 48.7943C2.97032 48.4453 2.79732 48.0707 2.61607 47.6989C2.53601 47.509 2.45526 47.3187 2.37895 47.1266L2.3212 46.9827L2.27151 46.8361L2.17238 46.5428C2.1392 46.4449 2.1062 46.3469 2.07507 46.2484C2.04682 46.1491 2.02195 46.0492 1.99532 45.9495L1.91657 45.6501C1.89013 45.5504 1.86326 45.4505 1.84426 45.3494L1.7262 44.7429C1.69363 44.5398 1.66613 44.3362 1.63707 44.1326C1.60645 43.929 1.59632 43.7241 1.57726 43.5199L1.55163 43.2134C1.54701 43.1112 1.54213 43.0089 1.53976 42.9066C1.52388 42.4975 1.52713 42.0891 1.54238 41.6817L1.58001 41.0721C1.59695 40.8696 1.62188 40.6678 1.64332 40.4661C1.66676 40.2645 1.69757 40.0641 1.72714 39.8638C1.75614 39.6634 1.79888 39.4652 1.83413 39.2663C1.9917 38.4733 2.20263 37.6938 2.47157 36.9366C2.6102 36.5591 2.75463 36.1851 2.92245 35.8204C3.0882 35.4556 3.2692 35.0967 3.4802 34.7555Z" fill="white"/>
<path d="M16.7099 46.0931C16.7099 46.8211 16.3146 47.4111 15.8268 47.4111C15.3392 47.4111 14.9438 46.8211 14.9438 46.0931C14.9438 45.3651 15.3392 44.7751 15.8268 44.7751C16.3146 44.7751 16.7099 45.3651 16.7099 46.0931Z" fill="white"/>
<path d="M16.0465 49.5499C15.9586 49.9199 15.7021 50.1762 15.4737 50.1218C15.2452 50.0675 15.1312 49.7233 15.2192 49.3532C15.307 48.9831 15.5633 48.7269 15.7918 48.7812C16.0203 48.8355 16.1343 49.1797 16.0465 49.5499Z" fill="white"/>
<path d="M78.1399 29.0099C78.4905 29.0099 78.7586 28.9283 78.9468 28.7656C79.1343 28.603 79.228 28.3551 79.228 28.0213C79.228 27.7044 79.1299 27.4604 78.9343 27.2893C78.738 27.1184 78.4524 27.0329 78.0774 27.0329C77.9443 27.0329 77.8336 27.0349 77.7461 27.0393C77.6586 27.0436 77.5686 27.054 77.4774 27.0704V29.0099H78.1399ZM77.4899 33.0262C77.398 33.051 77.2543 33.0761 77.0586 33.101C76.863 33.1261 76.6686 33.1384 76.4774 33.1384C76.2855 33.1384 76.1168 33.124 75.9711 33.095C75.8249 33.0657 75.7018 33.0137 75.6024 32.9384C75.5024 32.8635 75.4274 32.759 75.3768 32.6255C75.3268 32.4923 75.3018 32.3171 75.3018 32.1001V26.2073C75.3018 26.0318 75.3499 25.8967 75.4461 25.8004C75.5418 25.7048 75.673 25.6273 75.8393 25.5689C76.123 25.469 76.4461 25.3959 76.8086 25.35C77.1711 25.3042 77.5355 25.2812 77.9024 25.2812C79.053 25.2812 79.9318 25.5274 80.5405 26.0193C81.1486 26.5117 81.453 27.179 81.453 28.0213C81.453 28.4301 81.3886 28.7991 81.2599 29.1286C81.1299 29.4581 80.9386 29.7417 80.6843 29.9796C80.4299 30.2171 80.1093 30.4008 79.7218 30.5299C79.3343 30.6593 78.8861 30.7239 78.3774 30.7239H77.4899V33.0262Z" fill="#29AAE3"/>
<path d="M84.5659 33.0637C84.474 33.0801 84.339 33.103 84.1597 33.1325C83.9803 33.1615 83.799 33.1764 83.6159 33.1764C83.4328 33.1764 83.2678 33.1639 83.1222 33.1388C82.9759 33.1137 82.8534 33.0637 82.7534 32.9884C82.6534 32.9136 82.5759 32.8115 82.5222 32.6822C82.4678 32.553 82.4409 32.3841 82.4409 32.1753V24.9186C82.5322 24.9019 82.6678 24.879 82.8472 24.8498C83.0265 24.8206 83.2072 24.8059 83.3909 24.8059C83.574 24.8059 83.739 24.8184 83.8847 24.8433C84.0303 24.8686 84.1534 24.9186 84.2534 24.9934C84.3534 25.0687 84.4303 25.1711 84.4847 25.3002C84.539 25.4295 84.5659 25.5985 84.5659 25.807V33.0637Z" fill="#29AAE3"/>
<path d="M85.9043 27.083C85.9874 27.0578 86.1187 27.033 86.298 27.0079C86.4768 26.983 86.6624 26.9705 86.8543 26.9705C87.0374 26.9705 87.2018 26.983 87.348 27.0079C87.4937 27.033 87.6168 27.083 87.7168 27.1583C87.8168 27.2333 87.8937 27.3354 87.948 27.4648C88.0024 27.5941 88.0293 27.7629 88.0293 27.9714V30.6614C88.0293 31.0034 88.1124 31.2475 88.2793 31.3932C88.4462 31.5395 88.6874 31.6124 89.0043 31.6124C89.1962 31.6124 89.3524 31.5958 89.4737 31.5625C89.5943 31.5291 89.688 31.4956 89.7549 31.4623V27.083C89.838 27.0578 89.9693 27.033 90.1487 27.0079C90.3274 26.983 90.513 26.9705 90.7049 26.9705C90.888 26.9705 91.0531 26.983 91.1987 27.0079C91.3449 27.033 91.4674 27.083 91.5674 27.1583C91.6674 27.2333 91.7443 27.3354 91.7993 27.4648C91.8531 27.5941 91.8805 27.7629 91.8805 27.9714V31.7748C91.8805 32.1921 91.7049 32.5049 91.3555 32.7134C91.063 32.8968 90.7156 33.0366 90.3112 33.1324C89.9068 33.2283 89.4674 33.2763 88.9924 33.2763C88.5418 33.2763 88.1274 33.2263 87.748 33.1262C87.3687 33.0262 87.0418 32.8717 86.7668 32.6632C86.4918 32.455 86.2793 32.1861 86.1293 31.8562C85.9793 31.527 85.9043 31.1287 85.9043 30.6614V27.083Z" fill="#29AAE3"/>
<path d="M96.0928 26.8079C96.4347 26.8079 96.7703 26.8559 97.0997 26.9517C97.4284 27.0476 97.7141 27.1917 97.9559 27.3835C98.2059 27.2165 98.4872 27.0789 98.8003 26.9706C99.1128 26.8622 99.4897 26.8079 99.9316 26.8079C100.248 26.8079 100.558 26.8496 100.863 26.9329C101.167 27.0164 101.438 27.1477 101.675 27.327C101.913 27.5066 102.102 27.7443 102.244 28.04C102.386 28.3364 102.457 28.697 102.457 29.1225V33.0637C102.373 33.0886 102.242 33.1137 102.063 33.1385C101.883 33.1639 101.698 33.1764 101.507 33.1764C101.323 33.1764 101.158 33.1639 101.013 33.1385C100.867 33.1137 100.744 33.0637 100.644 32.9884C100.544 32.9136 100.467 32.8115 100.413 32.6822C100.358 32.553 100.332 32.3841 100.332 32.1753V29.1852C100.332 28.9349 100.26 28.7534 100.119 28.6409C99.9772 28.5282 99.7853 28.472 99.5441 28.472C99.4272 28.472 99.3022 28.499 99.1691 28.5531C99.0353 28.6076 98.9353 28.6637 98.8684 28.7223C98.8766 28.7554 98.8816 28.7867 98.8816 28.816V28.8973V33.0637C98.7897 33.0886 98.6541 33.1137 98.4747 33.1385C98.2953 33.1639 98.1141 33.1764 97.9309 33.1764C97.7478 33.1764 97.5828 33.1639 97.4372 33.1385C97.2909 33.1137 97.1684 33.0637 97.0684 32.9884C96.9684 32.9136 96.8909 32.8115 96.8366 32.6822C96.7828 32.553 96.7559 32.3841 96.7559 32.1753V29.1852C96.7559 28.9349 96.6784 28.7534 96.5247 28.6409C96.3703 28.5282 96.1847 28.472 95.9684 28.472C95.8178 28.472 95.6884 28.4949 95.5803 28.5408C95.4722 28.5867 95.3803 28.6306 95.3053 28.6721V33.0637C95.2222 33.0886 95.0909 33.1137 94.9116 33.1385C94.7322 33.1639 94.5472 33.1764 94.3553 33.1764C94.1722 33.1764 94.0072 33.1639 93.8616 33.1385C93.7159 33.1137 93.5928 33.0637 93.4928 32.9884C93.3928 32.9136 93.3153 32.8115 93.2616 32.6822C93.2072 32.553 93.1797 32.3841 93.1797 32.1753V28.3967C93.1797 28.1716 93.2278 27.9922 93.3241 27.8587C93.4197 27.7255 93.5509 27.6003 93.7178 27.4834C94.0009 27.2834 94.3528 27.1207 94.7741 26.9954C95.1947 26.8704 95.6347 26.8079 96.0928 26.8079Z" fill="#29AAE3"/>
<path d="M106.708 31.5997C107.091 31.5997 107.389 31.4684 107.602 31.2056C107.814 30.9427 107.92 30.5529 107.92 30.0357C107.92 29.5103 107.812 29.1183 107.595 28.8596C107.378 28.6011 107.087 28.4718 106.72 28.4718C106.553 28.4718 106.41 28.4884 106.288 28.5217C106.168 28.5553 106.037 28.6053 105.895 28.6719V31.3996C105.987 31.458 106.097 31.5058 106.226 31.5435C106.355 31.5808 106.516 31.5997 106.708 31.5997ZM103.782 24.9309C103.865 24.9061 103.999 24.8788 104.182 24.8495C104.365 24.8204 104.553 24.8059 104.745 24.8059C104.928 24.8059 105.093 24.8182 105.238 24.8433C105.384 24.8684 105.507 24.9183 105.607 24.9934C105.707 25.0685 105.782 25.1708 105.832 25.3C105.883 25.4295 105.907 25.5985 105.907 25.8068V27.0329C106.115 26.9495 106.314 26.8911 106.502 26.8578C106.689 26.8245 106.895 26.8079 107.12 26.8079C107.52 26.8079 107.9 26.8786 108.258 27.0203C108.616 27.1622 108.933 27.3688 109.208 27.6398C109.483 27.9109 109.7 28.2464 109.858 28.647C110.017 29.0474 110.096 29.5103 110.096 30.0357C110.096 30.5781 110.014 31.0513 109.852 31.4558C109.69 31.8606 109.462 32.1963 109.17 32.463C108.878 32.7302 108.522 32.9322 108.102 33.0697C107.681 33.2073 107.216 33.2761 106.708 33.2761C106.157 33.2761 105.69 33.2117 105.307 33.0826C104.924 32.9529 104.599 32.7924 104.332 32.6005C103.965 32.3421 103.782 32.0083 103.782 31.5997V24.9309Z" fill="#29AAE3"/>
<path d="M113.309 33.0636C113.217 33.08 113.082 33.1029 112.902 33.1324C112.723 33.1613 112.542 33.1763 112.359 33.1763C112.176 33.1763 112.011 33.1638 111.865 33.1387C111.719 33.1136 111.596 33.0636 111.496 32.9883C111.396 32.9135 111.319 32.8114 111.265 32.6821C111.211 32.5529 111.184 32.384 111.184 32.1752V27.083C111.275 27.0663 111.411 27.0436 111.59 27.0144C111.769 26.9849 111.951 26.9705 112.134 26.9705C112.317 26.9705 112.482 26.983 112.627 27.0079C112.773 27.033 112.896 27.083 112.996 27.158C113.096 27.2333 113.173 27.3354 113.227 27.4648C113.282 27.5941 113.309 27.7628 113.309 27.9711V33.0636ZM111.083 25.3061C111.083 24.9895 111.19 24.7225 111.402 24.5056C111.615 24.2888 111.896 24.1802 112.246 24.1802C112.596 24.1802 112.877 24.2888 113.09 24.5056C113.302 24.7225 113.409 24.9895 113.409 25.3061C113.409 25.6235 113.302 25.8902 113.09 26.1071C112.877 26.3241 112.596 26.4322 112.246 26.4322C111.896 26.4322 111.615 26.3241 111.402 26.1071C111.19 25.8902 111.083 25.6235 111.083 25.3061Z" fill="#29AAE3"/>
<path d="M118.51 29.2226C118.51 28.9641 118.437 28.7744 118.291 28.6535C118.145 28.5326 117.947 28.472 117.697 28.472C117.53 28.472 117.366 28.493 117.204 28.5343C117.04 28.5763 116.901 28.6388 116.785 28.7223V33.0637C116.701 33.0888 116.57 33.1137 116.391 33.1388C116.211 33.1639 116.026 33.1764 115.834 33.1764C115.651 33.1764 115.486 33.1639 115.34 33.1388C115.195 33.1137 115.072 33.0637 114.972 32.9887C114.872 32.9136 114.794 32.8115 114.74 32.6821C114.686 32.553 114.659 32.3841 114.659 32.1753V28.422C114.659 28.1966 114.707 28.0132 114.803 27.8713C114.899 27.7293 115.03 27.6003 115.197 27.4834C115.48 27.2834 115.836 27.1207 116.265 26.9954C116.695 26.8704 117.172 26.8079 117.697 26.8079C118.639 26.8079 119.364 27.0145 119.872 27.4272C120.381 27.8399 120.635 28.4136 120.635 29.1473V33.0637C120.552 33.0888 120.42 33.1137 120.242 33.1388C120.062 33.1639 119.877 33.1764 119.685 33.1764C119.502 33.1764 119.337 33.1639 119.191 33.1388C119.045 33.1137 118.922 33.0637 118.822 32.9887C118.722 32.9136 118.645 32.8115 118.591 32.6821C118.537 32.553 118.51 32.3841 118.51 32.1753V29.2226Z" fill="#29AAE3"/>
<path d="M125.686 28.6218C125.628 28.5885 125.542 28.5552 125.43 28.5217C125.317 28.4884 125.178 28.4717 125.011 28.4717C124.602 28.4717 124.296 28.5866 124.092 28.8159C123.888 29.0452 123.785 29.3725 123.785 29.798C123.785 30.2819 123.888 30.6299 124.092 30.8425C124.296 31.0554 124.557 31.1616 124.873 31.1616C125.215 31.1616 125.486 31.0824 125.686 30.9239V28.6218ZM124.911 26.8076C125.386 26.8076 125.817 26.8682 126.205 26.9888C126.593 27.11 126.92 27.2664 127.187 27.4583C127.353 27.5751 127.484 27.7042 127.58 27.8462C127.676 27.9881 127.724 28.1715 127.724 28.3964V32.7758C127.724 33.2177 127.64 33.5993 127.474 33.9205C127.307 34.2415 127.08 34.5087 126.793 34.7213C126.505 34.9339 126.167 35.0905 125.78 35.1905C125.392 35.2906 124.977 35.3406 124.536 35.3406C123.777 35.3406 123.181 35.2385 122.748 35.0341C122.315 34.8296 122.098 34.498 122.098 34.0395C122.098 33.8474 122.137 33.6784 122.217 33.5328C122.296 33.3866 122.385 33.2761 122.485 33.2013C122.727 33.3345 123 33.447 123.304 33.5389C123.608 33.6306 123.923 33.6765 124.248 33.6765C124.698 33.6765 125.057 33.6016 125.323 33.4515C125.59 33.3014 125.723 33.0593 125.723 32.7258V32.5255C125.382 32.6756 124.965 32.7507 124.473 32.7507C124.098 32.7507 123.742 32.6944 123.404 32.5817C123.067 32.469 122.771 32.294 122.517 32.0563C122.262 31.8185 122.058 31.512 121.904 31.1368C121.75 30.7612 121.673 30.3154 121.673 29.798C121.673 29.2894 121.754 28.847 121.917 28.4717C122.079 28.0962 122.304 27.7856 122.592 27.5396C122.879 27.2937 123.221 27.11 123.617 26.9888C124.013 26.8682 124.444 26.8076 124.911 26.8076Z" fill="#29AAE3"/>
<path d="M134.137 31.7249C134.279 31.7249 134.435 31.7102 134.607 31.681C134.777 31.6518 134.905 31.6122 134.988 31.5622V30.5613L134.088 30.6364C133.854 30.6533 133.662 30.7032 133.512 30.7866C133.362 30.8701 133.287 30.9953 133.287 31.1619C133.287 31.3286 133.352 31.4643 133.481 31.5685C133.61 31.6728 133.829 31.7249 134.137 31.7249ZM134.037 26.8079C134.487 26.8079 134.898 26.8537 135.269 26.9455C135.64 27.0372 135.957 27.1769 136.219 27.3646C136.482 27.5522 136.684 27.7899 136.825 28.0778C136.967 28.3656 137.038 28.7053 137.038 29.0973V31.9001C137.038 32.1171 136.977 32.294 136.857 32.4318C136.736 32.5694 136.592 32.6881 136.425 32.7883C135.884 33.1137 135.121 33.2763 134.137 33.2763C133.696 33.2763 133.298 33.2346 132.944 33.1513C132.589 33.0678 132.285 32.9428 132.031 32.7758C131.777 32.609 131.58 32.3963 131.444 32.1379C131.306 31.8794 131.237 31.5791 131.237 31.2372C131.237 30.6615 131.408 30.2193 131.75 29.9107C132.092 29.6022 132.62 29.4101 133.338 29.3353L134.975 29.1601V29.0724C134.975 28.8306 134.869 28.6576 134.657 28.553C134.444 28.4491 134.137 28.3967 133.737 28.3967C133.42 28.3967 133.112 28.4302 132.812 28.4968C132.512 28.5637 132.242 28.6469 132 28.7471C131.891 28.672 131.8 28.5574 131.725 28.4029C131.65 28.2487 131.612 28.0885 131.612 27.9212C131.612 27.7045 131.664 27.5314 131.769 27.4021C131.872 27.2729 132.033 27.1624 132.25 27.0705C132.492 26.9788 132.777 26.9123 133.107 26.8703C133.435 26.8286 133.745 26.8079 134.037 26.8079Z" fill="#29AAE3"/>
<path d="M142.189 29.2226C142.189 28.9641 142.116 28.7744 141.97 28.6535C141.824 28.5326 141.627 28.472 141.377 28.472C141.21 28.472 141.045 28.493 140.882 28.5343C140.72 28.5763 140.58 28.6388 140.464 28.7223V33.0637C140.38 33.0888 140.249 33.1137 140.07 33.1388C139.89 33.1639 139.705 33.1764 139.514 33.1764C139.33 33.1764 139.165 33.1639 139.02 33.1388C138.874 33.1137 138.751 33.0637 138.651 32.9887C138.551 32.9136 138.474 32.8115 138.419 32.6821C138.365 32.553 138.338 32.3841 138.338 32.1753V28.422C138.338 28.1966 138.386 28.0132 138.482 27.8713C138.578 27.7293 138.709 27.6003 138.876 27.4834C139.159 27.2834 139.515 27.1207 139.945 26.9954C140.374 26.8704 140.851 26.8079 141.377 26.8079C142.318 26.8079 143.044 27.0145 143.552 27.4272C144.06 27.8399 144.314 28.4136 144.314 29.1473V33.0637C144.231 33.0888 144.1 33.1137 143.921 33.1388C143.742 33.1639 143.556 33.1764 143.364 33.1764C143.181 33.1764 143.016 33.1639 142.87 33.1388C142.725 33.1137 142.602 33.0637 142.502 32.9887C142.402 32.9136 142.325 32.8115 142.27 32.6821C142.216 32.553 142.189 32.3841 142.189 32.1753V29.2226Z" fill="#29AAE3"/>
<path d="M148.915 28.4718C148.465 28.4718 148.119 28.6011 147.878 28.8596C147.636 29.1183 147.515 29.5103 147.515 30.0355C147.515 30.5529 147.627 30.9427 147.853 31.2056C148.078 31.4684 148.403 31.5997 148.828 31.5997C148.978 31.5997 149.113 31.5768 149.234 31.5309C149.355 31.4851 149.448 31.4332 149.515 31.3743V28.6219C149.348 28.5217 149.148 28.4718 148.915 28.4718ZM145.365 30.0355C145.365 29.4852 145.448 29.0078 145.615 28.6031C145.782 28.1985 146.013 27.8631 146.308 27.5959C146.604 27.3292 146.95 27.1311 147.347 27.0014C147.742 26.8723 148.169 26.8076 148.628 26.8076C148.794 26.8076 148.957 26.8224 149.115 26.8513C149.273 26.8808 149.403 26.9162 149.503 26.958V24.9309C149.586 24.9061 149.72 24.8788 149.903 24.8495C150.086 24.8204 150.274 24.8059 150.465 24.8059C150.648 24.8059 150.813 24.8182 150.96 24.8433C151.105 24.8684 151.228 24.9183 151.328 24.9934C151.428 25.0685 151.503 25.1708 151.553 25.3C151.603 25.4295 151.628 25.5985 151.628 25.8068V31.7372C151.628 32.1295 151.445 32.4422 151.078 32.6756C150.837 32.8342 150.523 32.974 150.14 33.0948C149.757 33.2155 149.315 33.2761 148.815 33.2761C148.273 33.2761 147.788 33.2013 147.359 33.0511C146.929 32.901 146.567 32.6841 146.271 32.4002C145.975 32.1171 145.75 31.7769 145.596 31.3808C145.442 30.9847 145.365 30.5363 145.365 30.0355Z" fill="#29AAE3"/>
<path d="M162.393 33.0262C162.301 33.0513 162.157 33.0761 161.962 33.1012C161.766 33.1261 161.572 33.1386 161.38 33.1386C161.189 33.1386 161.02 33.1239 160.874 33.095C160.728 33.0657 160.605 33.0136 160.505 32.9385C160.405 32.8635 160.33 32.7593 160.28 32.6258C160.23 32.4923 160.205 32.3171 160.205 32.1001V30.1483H157.804V33.0262C157.712 33.0513 157.569 33.0761 157.374 33.1012C157.177 33.1261 156.984 33.1386 156.792 33.1386C156.6 33.1386 156.431 33.1239 156.286 33.095C156.139 33.0657 156.017 33.0136 155.917 32.9385C155.817 32.8635 155.742 32.7593 155.692 32.6258C155.642 32.4923 155.616 32.3171 155.616 32.1001V25.4941C155.708 25.4774 155.854 25.4545 156.054 25.4253C156.254 25.3961 156.446 25.3813 156.629 25.3813C156.821 25.3813 156.99 25.3961 157.136 25.4253C157.282 25.4545 157.404 25.5066 157.504 25.5814C157.605 25.6567 157.679 25.761 157.729 25.8942C157.779 26.0279 157.804 26.2029 157.804 26.4199V28.4219H160.205V25.4941C160.297 25.4774 160.442 25.4545 160.642 25.4253C160.842 25.3961 161.034 25.3813 161.217 25.3813C161.409 25.3813 161.578 25.3961 161.724 25.4253C161.87 25.4545 161.993 25.5066 162.093 25.5814C162.193 25.6567 162.267 25.761 162.318 25.8942C162.368 26.0279 162.393 26.2029 162.393 26.4199V33.0262Z" fill="#29AAE3"/>
<path d="M166.718 28.3592C166.518 28.3592 166.345 28.3928 166.2 28.4594C166.053 28.526 165.935 28.6117 165.843 28.716C165.752 28.8202 165.683 28.937 165.637 29.0662C165.591 29.1955 165.564 29.3271 165.556 29.4603L167.693 29.1099C167.668 28.9433 167.577 28.7765 167.418 28.6095C167.26 28.4427 167.027 28.3592 166.718 28.3592ZM167.068 33.2763C166.577 33.2763 166.12 33.2075 165.7 33.0699C165.278 32.9324 164.912 32.7261 164.6 32.4506C164.287 32.1755 164.041 31.8294 163.862 31.4121C163.683 30.9953 163.593 30.5071 163.593 29.9483C163.593 29.3978 163.683 28.9245 163.862 28.5282C164.041 28.1321 164.277 27.8068 164.568 27.5522C164.86 27.298 165.193 27.1103 165.568 26.9891C165.943 26.8684 166.327 26.8079 166.718 26.8079C167.16 26.8079 167.562 26.8747 167.925 27.0079C168.288 27.1414 168.6 27.3251 168.863 27.5587C169.125 27.7921 169.329 28.0716 169.475 28.3967C169.621 28.7222 169.694 29.0768 169.694 29.4603C169.694 29.7439 169.615 29.9609 169.457 30.111C169.298 30.2611 169.077 30.3569 168.794 30.3987L165.706 30.8616C165.798 31.1369 165.985 31.3433 166.268 31.4811C166.552 31.6187 166.877 31.6875 167.243 31.6875C167.585 31.6875 167.908 31.6436 168.212 31.5559C168.517 31.4686 168.765 31.3665 168.957 31.2497C169.09 31.3329 169.202 31.4498 169.294 31.5999C169.386 31.75 169.432 31.9086 169.432 32.0751C169.432 32.4506 169.257 32.7301 168.907 32.9135C168.64 33.0555 168.34 33.1513 168.006 33.2012C167.673 33.2515 167.36 33.2763 167.068 33.2763Z" fill="#29AAE3"/>
<path d="M173.32 31.7249C173.462 31.7249 173.618 31.7102 173.789 31.681C173.959 31.6518 174.087 31.6122 174.17 31.5622V30.5613L173.27 30.6364C173.036 30.6533 172.845 30.7032 172.695 30.7866C172.545 30.8701 172.47 30.9953 172.47 31.1619C172.47 31.3286 172.534 31.4643 172.664 31.5685C172.793 31.6728 173.012 31.7249 173.32 31.7249ZM173.22 26.8079C173.67 26.8079 174.081 26.8537 174.451 26.9455C174.823 27.0372 175.139 27.1769 175.402 27.3646C175.664 27.5522 175.866 27.7899 176.008 28.0778C176.15 28.3656 176.221 28.7053 176.221 29.0973V31.9001C176.221 32.1171 176.16 32.294 176.039 32.4318C175.918 32.5694 175.775 32.6881 175.608 32.7883C175.066 33.1137 174.303 33.2763 173.32 33.2763C172.878 33.2763 172.481 33.2346 172.126 33.1513C171.772 33.0678 171.468 32.9428 171.214 32.7758C170.959 32.609 170.763 32.3963 170.626 32.1379C170.488 31.8794 170.419 31.5791 170.419 31.2372C170.419 30.6615 170.59 30.2193 170.933 29.9107C171.274 29.6022 171.803 29.4101 172.52 29.3353L174.158 29.1601V29.0724C174.158 28.8306 174.051 28.6576 173.839 28.553C173.627 28.4491 173.32 28.3967 172.92 28.3967C172.603 28.3967 172.295 28.4302 171.995 28.4968C171.695 28.5637 171.424 28.6469 171.183 28.7471C171.074 28.672 170.982 28.5574 170.907 28.4029C170.832 28.2487 170.794 28.0885 170.794 27.9212C170.794 27.7045 170.847 27.5314 170.951 27.4021C171.055 27.2729 171.216 27.1624 171.433 27.0705C171.674 26.9788 171.959 26.9123 172.289 26.8703C172.618 26.8286 172.928 26.8079 173.22 26.8079Z" fill="#29AAE3"/>
<path d="M179.646 30.9867C179.646 31.2037 179.715 31.358 179.852 31.4497C179.99 31.5416 180.184 31.5872 180.434 31.5872C180.559 31.5872 180.688 31.5769 180.821 31.5558C180.954 31.5351 181.071 31.5081 181.171 31.4745C181.247 31.5665 181.31 31.6686 181.365 31.7813C181.419 31.894 181.446 32.0294 181.446 32.188C181.446 32.5049 181.328 32.7633 181.09 32.9634C180.852 33.164 180.434 33.2639 179.834 33.2639C179.1 33.2639 178.535 33.0969 178.139 32.7633C177.744 32.4298 177.545 31.8875 177.545 31.1369V25.782C177.637 25.7569 177.769 25.7299 177.939 25.7007C178.11 25.6715 178.291 25.6567 178.484 25.6567C178.85 25.6567 179.135 25.7214 179.339 25.8508C179.544 25.9801 179.646 26.2531 179.646 26.6702V27.471H181.284C181.334 27.5627 181.382 27.6774 181.427 27.8149C181.473 27.9527 181.496 28.105 181.496 28.2718C181.496 28.5638 181.432 28.7743 181.302 28.9034C181.173 29.0328 181 29.0975 180.784 29.0975H179.646V30.9867Z" fill="#29AAE3"/>
<path d="M184.697 33.0636C184.605 33.08 184.47 33.1029 184.291 33.1324C184.111 33.1613 183.93 33.1763 183.747 33.1763C183.564 33.1763 183.399 33.1638 183.253 33.1387C183.107 33.1136 182.984 33.0636 182.884 32.9883C182.784 32.9135 182.707 32.8114 182.653 32.6821C182.599 32.5529 182.572 32.384 182.572 32.1752V27.083C182.663 27.0663 182.799 27.0436 182.978 27.0144C183.157 26.9849 183.338 26.9705 183.522 26.9705C183.705 26.9705 183.869 26.983 184.016 27.0079C184.161 27.033 184.284 27.083 184.384 27.158C184.484 27.2333 184.561 27.3354 184.616 27.4648C184.67 27.5941 184.697 27.7628 184.697 27.9711V33.0636ZM182.471 25.3061C182.471 24.9895 182.578 24.7225 182.791 24.5056C183.003 24.2888 183.284 24.1802 183.634 24.1802C183.984 24.1802 184.266 24.2888 184.478 24.5056C184.691 24.7225 184.797 24.9895 184.797 25.3061C184.797 25.6235 184.691 25.8902 184.478 26.1071C184.266 26.3241 183.984 26.4322 183.634 26.4322C183.284 26.4322 183.003 26.3241 182.791 26.1071C182.578 25.8902 182.471 25.6235 182.471 25.3061Z" fill="#29AAE3"/>
<path d="M189.898 29.2226C189.898 28.9641 189.825 28.7744 189.679 28.6535C189.533 28.5326 189.335 28.472 189.085 28.472C188.919 28.472 188.754 28.493 188.592 28.5343C188.429 28.5763 188.289 28.6388 188.173 28.7223V33.0637C188.089 33.0888 187.958 33.1137 187.779 33.1388C187.6 33.1639 187.414 33.1764 187.222 33.1764C187.039 33.1764 186.874 33.1639 186.729 33.1388C186.583 33.1137 186.46 33.0637 186.36 32.9887C186.26 32.9136 186.182 32.8115 186.129 32.6821C186.074 32.553 186.047 32.3841 186.047 32.1753V28.422C186.047 28.1966 186.095 28.0132 186.191 27.8713C186.287 27.7293 186.418 27.6003 186.585 27.4834C186.868 27.2834 187.224 27.1207 187.654 26.9954C188.083 26.8704 188.56 26.8079 189.085 26.8079C190.027 26.8079 190.752 27.0145 191.26 27.4272C191.769 27.8399 192.024 28.4136 192.024 29.1473V33.0637C191.94 33.0888 191.809 33.1137 191.63 33.1388C191.45 33.1639 191.265 33.1764 191.073 33.1764C190.89 33.1764 190.725 33.1639 190.579 33.1388C190.434 33.1137 190.31 33.0637 190.21 32.9887C190.11 32.9136 190.034 32.8115 189.979 32.6821C189.925 32.553 189.898 32.3841 189.898 32.1753V29.2226Z" fill="#29AAE3"/>
<path d="M197.074 28.6218C197.016 28.5885 196.93 28.5552 196.818 28.5217C196.705 28.4884 196.565 28.4717 196.399 28.4717C195.99 28.4717 195.684 28.5866 195.48 28.8159C195.275 29.0452 195.174 29.3725 195.174 29.798C195.174 30.2819 195.275 30.6299 195.48 30.8425C195.684 31.0554 195.944 31.1616 196.261 31.1616C196.603 31.1616 196.874 31.0824 197.074 30.9239V28.6218ZM196.299 26.8076C196.774 26.8076 197.205 26.8682 197.593 26.9888C197.98 27.11 198.307 27.2664 198.574 27.4583C198.741 27.5751 198.872 27.7042 198.969 27.8462C199.064 27.9881 199.112 28.1715 199.112 28.3964V32.7758C199.112 33.2177 199.029 33.5993 198.862 33.9205C198.695 34.2415 198.468 34.5087 198.18 34.7213C197.893 34.9339 197.555 35.0905 197.168 35.1905C196.78 35.2906 196.365 35.3406 195.924 35.3406C195.165 35.3406 194.569 35.2385 194.136 35.0341C193.702 34.8296 193.485 34.498 193.485 34.0395C193.485 33.8474 193.525 33.6784 193.605 33.5328C193.684 33.3866 193.773 33.2761 193.874 33.2013C194.115 33.3345 194.388 33.447 194.692 33.5389C194.997 33.6306 195.311 33.6765 195.636 33.6765C196.086 33.6765 196.445 33.6016 196.712 33.4515C196.978 33.3014 197.112 33.0593 197.112 32.7258V32.5255C196.77 32.6756 196.353 32.7507 195.861 32.7507C195.486 32.7507 195.13 32.6944 194.792 32.5817C194.455 32.469 194.159 32.294 193.905 32.0563C193.65 31.8185 193.446 31.512 193.292 31.1368C193.138 30.7612 193.061 30.3154 193.061 29.798C193.061 29.2894 193.142 28.847 193.305 28.4717C193.467 28.0962 193.692 27.7856 193.98 27.5396C194.267 27.2937 194.609 27.11 195.005 26.9888C195.401 26.8682 195.832 26.8076 196.299 26.8076Z" fill="#29AAE3"/>
<path d="M90.8155 43.4916C91.2524 43.4916 91.5836 43.3922 91.8086 43.1928C92.0336 42.9937 92.1461 42.7374 92.1461 42.4241C92.1461 42.1565 92.0599 41.9344 91.8867 41.758C91.7142 41.5818 91.4417 41.4416 91.0699 41.3371L90.2186 41.0825C89.9442 40.9978 89.7061 40.8881 89.5042 40.7542C89.3017 40.6205 89.1467 40.4539 89.0392 40.2549C88.9317 40.056 88.878 39.8224 88.878 39.5547C88.878 39.0519 89.0605 38.6586 89.4255 38.3745C89.7911 38.0904 90.2774 37.9485 90.8836 37.9485C91.2361 37.9485 91.5511 37.9862 91.828 38.0612C92.1055 38.1365 92.3236 38.2326 92.4836 38.3501C92.6436 38.4676 92.7236 38.5917 92.7236 38.722C92.7236 38.8072 92.7005 38.8837 92.6549 38.9523C92.6092 39.0211 92.5505 39.0747 92.4792 39.114C92.3161 38.9834 92.0955 38.8693 91.8186 38.7711C91.5411 38.6733 91.2392 38.6243 90.913 38.6243C90.5349 38.6243 90.2349 38.7076 90.013 38.8741C89.7911 39.0406 89.6799 39.2675 89.6799 39.5547C89.6799 39.7832 89.7599 39.9694 89.9199 40.113C90.0799 40.2566 90.3392 40.3806 90.698 40.4851L91.2949 40.6613C91.8099 40.8049 92.2161 41.0137 92.513 41.2881C92.8099 41.5623 92.9586 41.941 92.9586 42.4241C92.9586 42.9399 92.7705 43.3577 92.3955 43.6777C92.0205 43.9978 91.4936 44.1575 90.8155 44.1575C90.4174 44.1575 90.0699 44.1133 89.773 44.0252C89.4761 43.9372 89.2449 43.8264 89.0786 43.6922C88.9117 43.5585 88.8286 43.4262 88.8286 43.2956C88.8286 43.1849 88.863 43.0917 88.9317 43.0164C88.9999 42.9416 89.0799 42.8878 89.1711 42.8549C89.3211 42.9988 89.5336 43.1407 89.8074 43.2809C90.0817 43.4214 90.4174 43.4916 90.8155 43.4916Z" fill="#4ADB2A"/>
<path d="M97.029 45.8616C96.8922 45.8616 96.7878 45.8322 96.7165 45.7735C96.644 45.7148 96.6084 45.6231 96.6084 45.4993V43.2762L97.3915 43.2958V45.793C97.359 45.8061 97.3097 45.8208 97.2447 45.837C97.179 45.8534 97.1078 45.8616 97.029 45.8616ZM98.5365 44.1574C98.2559 44.1574 97.9934 44.1168 97.7484 44.0353C97.504 43.9537 97.3259 43.8639 97.2153 43.7657V43.0409C97.3459 43.1652 97.5103 43.2745 97.7097 43.3691C97.9084 43.4638 98.1478 43.5113 98.4284 43.5113C98.8853 43.5113 99.2522 43.3725 99.5297 43.095C99.8072 42.8177 99.9453 42.3719 99.9453 41.7581C99.9453 41.3274 99.8753 40.9863 99.7353 40.7348C99.5947 40.4836 99.409 40.3023 99.1771 40.1913C98.9459 40.0803 98.6965 40.0248 98.4284 40.0248C98.194 40.0248 97.9946 40.0542 97.8315 40.1131C97.6684 40.1718 97.5215 40.2369 97.3915 40.3089V43.5603H96.6084V40.3284C96.6084 40.1978 96.6315 40.0936 96.6771 40.0149C96.7228 39.9367 96.8172 39.8551 96.9609 39.7701C97.1372 39.6721 97.3472 39.5824 97.5922 39.5011C97.8365 39.4194 98.1153 39.3784 98.4284 39.3784C98.859 39.3784 99.249 39.4617 99.5978 39.6282C99.9472 39.7945 100.225 40.0528 100.43 40.4018C100.635 40.7513 100.738 41.2033 100.738 41.7581C100.738 42.2937 100.645 42.739 100.459 43.095C100.273 43.451 100.014 43.7167 99.6809 43.8932C99.3484 44.0693 98.9672 44.1574 98.5365 44.1574Z" fill="#4ADB2A"/>
<path d="M104.721 42.2675L104.682 41.6504L107.637 41.249C107.611 40.8899 107.487 40.5944 107.266 40.3625C107.044 40.1308 106.737 40.0149 106.346 40.0149C105.941 40.0149 105.607 40.1605 105.342 40.4508C105.078 40.7414 104.946 41.1575 104.946 41.6993V41.9149C104.992 42.4374 105.163 42.834 105.46 43.1047C105.757 43.3758 106.163 43.5112 106.678 43.5112C106.952 43.5112 107.2 43.4655 107.422 43.3741C107.644 43.2829 107.82 43.1848 107.951 43.0804C108.022 43.1262 108.079 43.1798 108.122 43.2418C108.164 43.3041 108.186 43.3741 108.186 43.4525C108.186 43.5766 108.115 43.6922 107.975 43.8003C107.835 43.9079 107.649 43.9943 107.417 44.0598C107.186 44.1247 106.926 44.1575 106.639 44.1575C106.137 44.1575 105.701 44.066 105.333 43.8833C104.964 43.7006 104.681 43.4282 104.481 43.0657C104.282 42.7034 104.183 42.2612 104.183 41.7387C104.183 41.3666 104.237 41.0354 104.344 40.7446C104.452 40.454 104.602 40.2078 104.794 40.0053C104.987 39.8028 105.217 39.6479 105.484 39.54C105.752 39.4323 106.042 39.3783 106.356 39.3783C106.753 39.3783 107.104 39.4635 107.407 39.6331C107.711 39.8028 107.949 40.0395 108.122 40.343C108.294 40.6466 108.381 40.9944 108.381 41.3861C108.381 41.5297 108.349 41.6325 108.283 41.6945C108.218 41.7568 108.127 41.7942 108.009 41.8073L104.721 42.2675Z" fill="#4ADB2A"/>
<path d="M114.096 40.0345C113.653 40.0345 113.284 40.1849 112.991 40.4851C112.697 40.7854 112.55 41.2162 112.55 41.7778C112.55 42.3327 112.692 42.7606 112.976 43.0606C113.259 43.3611 113.633 43.5112 114.096 43.5112C114.371 43.5112 114.599 43.4737 114.781 43.3985C114.964 43.3236 115.127 43.237 115.271 43.139C115.343 43.1781 115.401 43.2274 115.447 43.286C115.493 43.3447 115.515 43.4168 115.515 43.5013C115.515 43.6842 115.38 43.8394 115.109 43.9666C114.838 44.0938 114.501 44.1575 114.096 44.1575C113.646 44.1575 113.243 44.0711 112.888 43.8981C112.532 43.725 112.253 43.4622 112.051 43.1096C111.849 42.757 111.748 42.3131 111.748 41.7778C111.748 41.249 111.852 40.8066 112.061 40.4508C112.269 40.0951 112.552 39.8275 112.908 39.6476C113.263 39.4681 113.653 39.3783 114.077 39.3783C114.481 39.3783 114.816 39.4468 115.08 39.5842C115.344 39.7212 115.476 39.8779 115.476 40.0541C115.476 40.1325 115.453 40.2011 115.408 40.26C115.362 40.3186 115.303 40.3642 115.232 40.3971C115.088 40.299 114.929 40.2141 114.757 40.1421C114.584 40.0705 114.364 40.0345 114.096 40.0345Z" fill="#4ADB2A"/>
<path d="M119.214 41.4449H119.997V44.0107C119.964 44.024 119.915 44.0382 119.85 44.0546C119.785 44.0711 119.713 44.0793 119.635 44.0793C119.498 44.0793 119.394 44.0515 119.322 43.996C119.25 43.9408 119.214 43.8507 119.214 43.7267V41.4449ZM119.997 41.8267H119.214V39.5255C119.247 39.5122 119.297 39.4977 119.365 39.4813C119.434 39.4651 119.507 39.4569 119.585 39.4569C119.723 39.4569 119.825 39.4847 119.894 39.5399C119.962 39.5957 119.997 39.6886 119.997 39.8192V41.8267ZM119.097 38.0759C119.097 37.9388 119.145 37.8229 119.244 37.7283C119.341 37.6338 119.462 37.5864 119.605 37.5864C119.755 37.5864 119.876 37.6338 119.967 37.7283C120.059 37.8229 120.104 37.9388 120.104 38.0759C120.104 38.213 120.059 38.3291 119.967 38.4235C119.876 38.5183 119.755 38.5656 119.605 38.5656C119.462 38.5656 119.341 38.5183 119.244 38.4235C119.145 38.3291 119.097 38.213 119.097 38.0759Z" fill="#4ADB2A"/>
<path d="M125.624 43.5209C125.898 43.5209 126.125 43.4933 126.304 43.4376C126.484 43.3824 126.613 43.3285 126.691 43.2762V41.8563L125.478 41.9835C125.138 42.0095 124.887 42.0848 124.724 42.2087C124.561 42.3327 124.479 42.5123 124.479 42.7473C124.479 42.989 124.575 43.1781 124.768 43.3152C124.96 43.4526 125.246 43.5209 125.624 43.5209ZM125.624 44.1675C125.011 44.1675 124.536 44.0465 124.201 43.805C123.864 43.5636 123.696 43.2141 123.696 42.757C123.696 42.3327 123.838 42.0078 124.122 41.7827C124.406 41.5572 124.799 41.4221 125.301 41.3763L126.691 41.2392V40.965C126.691 40.6386 126.593 40.4002 126.398 40.2498C126.202 40.1 125.938 40.0249 125.604 40.0249C125.337 40.0249 125.081 40.064 124.836 40.1422C124.592 40.2206 124.374 40.3087 124.186 40.4067C124.133 40.3611 124.086 40.3073 124.044 40.2453C124.001 40.1832 123.98 40.1195 123.98 40.0541C123.98 39.8844 124.074 39.7541 124.264 39.6624C124.44 39.5712 124.644 39.5009 124.876 39.4519C125.107 39.403 125.353 39.3783 125.614 39.3783C126.182 39.3783 126.632 39.5058 126.965 39.7604C127.298 40.015 127.464 40.4166 127.464 40.965V43.2858C127.464 43.4297 127.436 43.539 127.381 43.614C127.325 43.6891 127.242 43.7593 127.131 43.8245C126.974 43.9094 126.766 43.9879 126.505 44.0596C126.244 44.1312 125.951 44.1675 125.624 44.1675Z" fill="#4ADB2A"/>
<path d="M131.456 41.4449L132.239 41.5621V44.0107C132.206 44.024 132.157 44.0382 132.092 44.0546C132.027 44.071 131.955 44.0792 131.877 44.0792C131.74 44.0792 131.635 44.0514 131.564 43.996C131.492 43.9407 131.456 43.8507 131.456 43.7266V41.4449ZM132.239 41.9343L131.456 41.8267V37.6841C131.489 37.6711 131.539 37.6566 131.608 37.6399C131.676 37.6238 131.746 37.6156 131.818 37.6156C131.962 37.6156 132.068 37.6433 132.136 37.6989C132.205 37.7543 132.239 37.8442 132.239 37.9682V41.9343Z" fill="#4ADB2A"/>
<path d="M136.339 41.4449H137.122V44.0107C137.089 44.024 137.04 44.0382 136.975 44.0546C136.91 44.0711 136.838 44.0793 136.76 44.0793C136.623 44.0793 136.519 44.0515 136.447 43.996C136.375 43.9408 136.339 43.8507 136.339 43.7267V41.4449ZM137.122 41.8267H136.339V39.5255C136.372 39.5122 136.422 39.4977 136.491 39.4813C136.559 39.4651 136.633 39.4569 136.711 39.4569C136.848 39.4569 136.951 39.4847 137.019 39.5399C137.088 39.5957 137.122 39.6886 137.122 39.8192V41.8267ZM136.222 38.0759C136.222 37.9388 136.271 37.8229 136.369 37.7283C136.466 37.6338 136.587 37.5864 136.73 37.5864C136.88 37.5864 137.001 37.6338 137.093 37.7283C137.184 37.8229 137.23 37.9388 137.23 38.0759C137.23 38.213 137.184 38.3291 137.093 38.4235C137.001 38.5183 136.88 38.5656 136.73 38.5656C136.587 38.5656 136.466 38.5183 136.369 38.4235C136.271 38.3291 136.222 38.213 136.222 38.0759Z" fill="#4ADB2A"/>
<path d="M144.325 42.8256C144.325 43.2434 144.172 43.57 143.865 43.805C143.558 44.0402 143.114 44.1577 142.534 44.1577C142.038 44.1577 141.634 44.0807 141.321 43.9274C141.007 43.7742 140.851 43.606 140.851 43.4232C140.851 43.3445 140.872 43.268 140.914 43.1927C140.957 43.1179 141.021 43.0576 141.106 43.0118C141.282 43.1358 141.487 43.2502 141.722 43.3544C141.957 43.459 142.224 43.5113 142.524 43.5113C143.202 43.5113 143.542 43.283 143.542 42.8256C143.542 42.6364 143.485 42.4812 143.371 42.3606C143.257 42.2396 143.089 42.1535 142.867 42.1011L142.054 41.8853C141.657 41.7876 141.366 41.6358 141.184 41.4302C141.001 41.2245 140.91 40.9685 140.91 40.6614C140.91 40.3156 141.05 40.0149 141.331 39.7605C141.611 39.5059 142.038 39.3784 142.612 39.3784C142.919 39.3784 143.186 39.4095 143.415 39.4716C143.643 39.5336 143.821 39.6152 143.948 39.7163C144.076 39.8177 144.139 39.9268 144.139 40.0446C144.139 40.1292 144.117 40.2046 144.076 40.2697C144.033 40.3351 143.976 40.3839 143.904 40.4167C143.826 40.3643 143.726 40.3072 143.606 40.2454C143.485 40.1833 143.343 40.1309 143.18 40.0885C143.017 40.046 142.837 40.025 142.642 40.025C142.354 40.025 142.123 40.0803 141.947 40.1913C141.771 40.3023 141.682 40.459 141.682 40.6614C141.682 40.805 141.733 40.9305 141.834 41.0385C141.936 41.1461 142.097 41.2262 142.319 41.2783L142.994 41.4449C143.437 41.5494 143.77 41.7142 143.992 41.9394C144.214 42.1648 144.325 42.46 144.325 42.8256Z" fill="#4ADB2A"/>
<path d="M148.405 40.2499V39.6035H150.392C150.411 39.6299 150.431 39.672 150.451 39.731C150.471 39.7899 150.48 39.8519 150.48 39.9171C150.48 40.0216 150.454 40.1031 150.402 40.1618C150.349 40.2207 150.278 40.2499 150.187 40.2499H148.405ZM148.004 41.4448H148.787V42.7964C148.787 43.0575 148.862 43.2417 149.013 43.3495C149.162 43.4572 149.368 43.5112 149.629 43.5112C149.739 43.5112 149.864 43.4917 150.001 43.4526C150.138 43.413 150.251 43.3677 150.343 43.3153C150.382 43.3543 150.418 43.4034 150.451 43.4623C150.483 43.5209 150.499 43.5895 150.499 43.6679C150.499 43.8115 150.415 43.929 150.245 44.0203C150.076 44.1117 149.841 44.1573 149.541 44.1573C149.084 44.1573 148.714 44.0562 148.43 43.854C148.146 43.6517 148.004 43.3153 148.004 42.8451V41.4448ZM148.787 41.7385H148.004V38.1933C148.037 38.1805 148.088 38.1656 148.156 38.1494C148.224 38.133 148.298 38.1248 148.376 38.1248C148.513 38.1248 148.616 38.1527 148.684 38.208C148.753 38.2638 148.787 38.3536 148.787 38.4774V41.7385Z" fill="#4ADB2A"/>
<path d="M157.379 42.8256C157.379 43.2434 157.225 43.57 156.919 43.805C156.612 44.0402 156.169 44.1577 155.588 44.1577C155.092 44.1577 154.687 44.0807 154.375 43.9274C154.061 43.7742 153.905 43.606 153.905 43.4232C153.905 43.3445 153.926 43.268 153.968 43.1927C154.01 43.1179 154.074 43.0576 154.159 43.0118C154.335 43.1358 154.54 43.2502 154.775 43.3544C155.011 43.459 155.278 43.5113 155.578 43.5113C156.257 43.5113 156.596 43.283 156.596 42.8256C156.596 42.6364 156.539 42.4812 156.425 42.3606C156.31 42.2396 156.142 42.1535 155.92 42.1011L155.109 41.8853C154.71 41.7876 154.42 41.6358 154.237 41.4302C154.055 41.2245 153.964 40.9685 153.964 40.6614C153.964 40.3156 154.104 40.0149 154.384 39.7605C154.665 39.5059 155.092 39.3784 155.666 39.3784C155.973 39.3784 156.24 39.4095 156.469 39.4716C156.697 39.5336 156.875 39.6152 157.002 39.7163C157.129 39.8177 157.193 39.9268 157.193 40.0446C157.193 40.1292 157.172 40.2046 157.129 40.2697C157.087 40.3351 157.03 40.3839 156.958 40.4167C156.88 40.3643 156.78 40.3072 156.66 40.2454C156.539 40.1833 156.397 40.1309 156.234 40.0885C156.07 40.046 155.891 40.025 155.695 40.025C155.409 40.025 155.177 40.0803 155.001 40.1913C154.825 40.3023 154.737 40.459 154.737 40.6614C154.737 40.805 154.787 40.9305 154.888 41.0385C154.989 41.1461 155.151 41.2262 155.373 41.2783L156.048 41.4449C156.491 41.5494 156.824 41.7142 157.046 41.9394C157.268 42.1648 157.379 42.46 157.379 42.8256Z" fill="#4ADB2A"/>
<path d="M166.058 44.0302V43.3446H169.239C169.272 43.3709 169.298 43.4131 169.318 43.472C169.337 43.5309 169.347 43.596 169.347 43.668C169.347 43.779 169.318 43.8671 169.259 43.9323C169.2 43.9977 169.122 44.0302 169.024 44.0302H166.058ZM165.628 40.5536H166.431V43.9521L166.058 44.0302C165.935 44.0302 165.832 43.9895 165.75 43.9079C165.669 43.8263 165.628 43.7235 165.628 43.5994V40.5536ZM166.431 41.1413H165.628V38.0954C165.661 38.0824 165.712 38.0679 165.78 38.0515C165.848 38.0351 165.922 38.0269 166 38.0269C166.143 38.0269 166.251 38.0549 166.323 38.1104C166.395 38.1656 166.431 38.2588 166.431 38.3894V41.1413Z" fill="#4ADB2A"/>
<path d="M173.29 40.2499V39.6035H175.277C175.297 39.6299 175.316 39.672 175.336 39.731C175.355 39.7899 175.365 39.8519 175.365 39.9171C175.365 40.0216 175.339 40.1031 175.287 40.1618C175.235 40.2207 175.163 40.2499 175.072 40.2499H173.29ZM172.889 41.4448H173.672V42.7964C173.672 43.0575 173.747 43.2417 173.897 43.3495C174.047 43.4572 174.253 43.5112 174.514 43.5112C174.625 43.5112 174.749 43.4917 174.885 43.4526C175.023 43.413 175.137 43.3677 175.228 43.3153C175.267 43.3543 175.304 43.4034 175.336 43.4623C175.369 43.5209 175.385 43.5895 175.385 43.6679C175.385 43.8115 175.3 43.929 175.13 44.0203C174.96 44.1117 174.725 44.1573 174.425 44.1573C173.969 44.1573 173.599 44.0562 173.315 43.854C173.031 43.6517 172.889 43.3153 172.889 42.8451V41.4448ZM173.672 41.7385H172.889V38.1933C172.922 38.1805 172.973 38.1656 173.041 38.1494C173.11 38.133 173.183 38.1248 173.261 38.1248C173.398 38.1248 173.501 38.1527 173.57 38.208C173.638 38.2638 173.672 38.3536 173.672 38.4774V41.7385Z" fill="#4ADB2A"/>
<path d="M182.724 40.152L181.942 40.1618V37.684C181.974 37.6712 182.025 37.6565 182.093 37.6401C182.162 37.6237 182.232 37.6155 182.303 37.6155C182.447 37.6155 182.553 37.6432 182.622 37.6987C182.69 37.7543 182.724 37.844 182.724 37.9681V40.152ZM181.942 43.2563V39.966L182.724 39.9561V43.2858C182.724 43.4101 182.696 43.5095 182.641 43.5846C182.585 43.6596 182.499 43.7332 182.382 43.8049C182.251 43.8899 182.065 43.9697 181.824 44.0448C181.583 44.1197 181.305 44.1575 180.992 44.1575C180.522 44.1575 180.108 44.0757 179.749 43.9126C179.39 43.7494 179.11 43.4934 178.908 43.1439C178.705 42.7946 178.604 42.3426 178.604 41.7875C178.604 41.2196 178.703 40.7593 178.903 40.4067C179.102 40.0541 179.371 39.7946 179.71 39.6281C180.049 39.4618 180.421 39.3783 180.826 39.3783C181.08 39.3783 181.321 39.4142 181.55 39.4859C181.778 39.5581 181.958 39.6462 182.088 39.7505V40.4753C181.964 40.3512 181.803 40.2452 181.604 40.1571C181.405 40.0688 181.171 40.0248 180.904 40.0248C180.636 40.0248 180.388 40.0821 180.16 40.1962C179.932 40.3104 179.749 40.4982 179.612 40.7593C179.475 41.0204 179.407 41.3697 179.407 41.807C179.407 42.4012 179.55 42.8337 179.837 43.1045C180.125 43.3755 180.506 43.5112 180.982 43.5112C181.211 43.5112 181.398 43.4866 181.545 43.4376C181.691 43.3886 181.824 43.3285 181.942 43.2563Z" fill="#4ADB2A"/>
<path d="M39.1328 39.265H42.0975C42.0975 42.5046 43.5125 44.0881 45.9047 44.0881C48.1956 44.0881 49.5768 42.4324 49.5768 39.193V21.3755H52.5752V39.0849C52.5752 44.2682 49.8801 47.0398 45.9382 47.0398C41.8617 47.0398 39.1328 44.5563 39.1328 39.265Z" fill="#4ADB2A"/>
<path d="M69.2169 39.5531C69.2169 36.7814 67.9031 34.8735 63.7594 34.8735H59.8175V43.9805H63.8269C67.6 44.0164 69.2506 42.2166 69.2169 39.5531ZM59.8175 23.9673V32.2462H63.355C66.5556 32.2462 68.1725 30.3745 68.1725 27.9627C68.1725 25.5871 66.9263 23.9673 63.4225 23.9673H59.8175ZM72.1481 39.4452C72.1481 43.6923 69.3181 46.5721 63.7931 46.5721H56.7856V21.3757H63.3888C68.9138 21.3757 71.0025 23.8952 71.0025 27.7107C71.0025 30.0144 69.8575 31.922 67.7688 33.0018C70.5313 33.8299 72.1481 35.8457 72.1481 39.4452Z" fill="#29AAE3"/>
</g>
</g>
</g>
<defs>
<clipPath id="clip0_23_174">
<rect width="204" height="65" fill="white"/>
</clipPath>
</defs>
</svg>
