<svg width="16" height="16" viewBox="0 0 16 16" fill="none" xmlns="http://www.w3.org/2000/svg">
<path d="M8.66669 7.33331L12 3.99997M12.6667 4.66664L11.3334 3.33331L13 2.33331L13.6667 2.99997L12.6667 4.66664ZM2.68336 5.98331C2.36328 5.66352 2.14309 5.25757 2.04958 4.81489C1.95607 4.37221 1.99329 3.91189 2.15669 3.48998L3.10469 4.43798H4.43802V3.10464L3.49002 2.15664C3.91197 1.99287 4.37243 1.95535 4.81532 2.04865C5.25821 2.14196 5.6644 2.36206 5.98441 2.68214C6.30442 3.00222 6.52443 3.40846 6.61764 3.85137C6.71084 4.29428 6.67322 4.75474 6.50936 5.17664L10.8227 9.49064C11.2446 9.32678 11.7051 9.28915 12.148 9.38236C12.5909 9.47557 12.9971 9.69558 13.3172 10.0156C13.6373 10.3356 13.8574 10.7418 13.9507 11.1847C14.044 11.6276 14.0065 12.088 13.8427 12.51L12.8954 11.562H11.562V12.8953L12.51 13.8433C12.0882 14.0071 11.6278 14.0447 11.185 13.9515C10.7422 13.8583 10.336 13.6383 10.016 13.3184C9.69596 12.9985 9.47584 12.5925 9.38245 12.1497C9.28907 11.7069 9.32644 11.2466 9.49002 10.8246L5.17536 6.50998C4.75362 6.6731 4.29357 6.71016 3.85116 6.61666C3.40874 6.52316 3.00303 6.30312 2.68336 5.98331Z" stroke="#6E6D6D" stroke-linecap="round" stroke-linejoin="round"/>
<path d="M8.13534 9.66662L4.39934 13.4026C4.31574 13.4864 4.21645 13.5528 4.10715 13.5982C3.99784 13.6435 3.88067 13.6668 3.76234 13.6668C3.644 13.6668 3.52683 13.6435 3.41753 13.5982C3.30822 13.5528 3.20893 13.4864 3.12534 13.4026L2.59734 12.8746C2.51358 12.791 2.44714 12.6917 2.4018 12.5824C2.35647 12.4731 2.33313 12.356 2.33313 12.2376C2.33313 12.1193 2.35647 12.0021 2.4018 11.8928C2.44714 11.7835 2.51358 11.6842 2.59734 11.6006L6.33334 7.86462" stroke="#6E6D6D" stroke-linecap="round" stroke-linejoin="round"/>
</svg>
